<?xml version="1.0" standalone="no"?>
<!DOCTYPE svg PUBLIC "-//W3C//DTD SVG 20010904//EN"
 "http://www.w3.org/TR/2001/REC-SVG-20010904/DTD/svg10.dtd">
<svg version="1.0" xmlns="http://www.w3.org/2000/svg"
 width="320.000000pt" height="160.000000pt" viewBox="0 0 320.000000 160.000000"
 preserveAspectRatio="xMidYMid meet">
<metadata>
Created by potrace 1.15, written by Peter Selinger 2001-2017
</metadata>
<g transform="translate(0.000000,160.000000) scale(0.100000,-0.100000)"
fill="#000000" stroke="none">
<path d="M423 1572 c-16 -10 -183 -521 -183 -560 0 -29 3 -31 43 -37 23 -3
534 -4 1135 -3 1200 3 1111 -2 1112 63 0 17 -12 83 -27 147 -14 65 -23 121
-20 125 16 15 31 -22 62 -153 44 -182 46 -184 194 -184 113 0 131 6 131 47 0
12 -15 70 -34 128 -50 154 -52 165 -27 165 41 0 42 30 4 141 -19 57 -40 110
-45 117 -8 9 -56 12 -179 12 -144 0 -169 -2 -177 -16 -8 -15 -10 -15 -15 0 -6
14 -31 16 -191 16 -160 0 -186 -2 -194 -16 -8 -15 -10 -15 -15 0 -6 14 -67 15
-592 16 l-586 0 -9 -23 -9 -22 0 23 c-1 22 -1 22 -183 22 -101 0 -188 -4 -195
-8z m107 -183 c-11 -30 -20 -64 -20 -76 0 -28 28 -43 58 -32 30 11 65 90 60
135 l-4 34 44 0 c41 0 44 -2 38 -22 -3 -13 -9 -40 -12 -60 -6 -33 -10 -38 -34
-38 -32 0 -43 -11 -56 -60 -13 -48 -7 -69 22 -76 17 -4 23 -11 20 -21 -3 -8
-6 -21 -6 -29 0 -10 -12 -14 -38 -14 l-38 0 4 39 c5 53 -12 83 -46 79 -23 -3
-30 -11 -46 -60 -19 -57 -20 -58 -58 -58 -21 0 -38 3 -38 8 0 4 20 74 45 156
25 82 45 151 45 152 0 6 75 9 78 3 2 -4 -6 -31 -18 -60z m586 29 c-3 -18 -10
-73 -16 -123 -6 -49 -13 -107 -16 -127 l-6 -38 -128 0 -128 0 14 70 c7 38 20
110 30 160 l16 90 119 0 120 0 -5 -32z m339 23 c-70 -5 -80 -9 -83 -26 -2 -11
-7 -29 -12 -40 -17 -40 -20 -166 -4 -196 13 -25 20 -29 62 -30 26 -1 59 0 75
1 15 1 27 -3 27 -9 0 -7 -44 -11 -131 -11 l-131 0 5 33 c3 17 9 77 12 132 3
55 9 112 11 128 l6 27 121 -2 c115 -2 117 -2 42 -7z m315 -39 c14 -44 17 -47
50 -47 34 0 35 2 44 48 8 42 12 47 37 47 24 0 27 -4 31 -40 3 -33 0 -40 -14
-40 -11 0 -21 -13 -29 -40 -15 -50 -1 -87 36 -96 19 -5 25 -13 25 -33 0 -14 3
-36 6 -48 6 -21 3 -23 -28 -23 -32 0 -34 3 -47 48 -17 57 -28 72 -51 72 -22 0
-50 -52 -50 -92 0 -26 -3 -28 -39 -28 l-40 0 -3 153 c-2 83 -2 155 0 160 2 4
15 7 30 7 23 0 29 -6 42 -48z m520 39 c-53 -6 -55 -7 -63 -44 -7 -29 -5 -43 7
-62 14 -22 24 -25 71 -25 29 0 57 -4 60 -10 4 -6 -13 -10 -45 -10 -45 0 -52
-3 -60 -26 -15 -39 -12 -79 8 -97 10 -9 40 -18 69 -19 104 -7 63 -18 -64 -18
l-130 0 -7 68 c-4 37 -12 109 -20 160 l-13 92 121 -2 c87 -1 106 -3 66 -7z
m413 -1 c-37 -15 -38 -64 -4 -188 17 -62 31 -114 31 -117 0 -3 -15 -5 -33 -5
l-34 0 -26 98 c-14 54 -37 123 -51 154 -22 50 -29 57 -58 61 -18 2 19 4 82 5
76 0 107 -2 93 -8z"/>
<path d="M963 1428 c-28 -36 -61 -206 -49 -252 9 -37 59 -36 83 0 25 38 42
171 28 220 -11 41 -42 57 -62 32z"/>
<path d="M290 887 c-20 -16 -35 -59 -147 -422 -53 -172 -98 -336 -100 -367 -5
-53 -3 -58 15 -58 12 0 24 -5 28 -11 5 -8 70 -9 238 -3 127 4 247 8 266 7 314
-3 322 -3 545 -9 167 -5 194 -3 222 12 18 9 35 24 38 33 3 9 18 31 35 49 l30
33 0 -28 c1 -40 22 -74 58 -88 38 -17 450 -19 469 -3 8 6 31 7 60 3 70 -11
486 -12 501 -1 6 5 49 5 95 1 45 -4 167 -8 272 -10 153 -2 195 0 219 12 28 14
28 16 22 75 -7 62 -176 613 -217 708 -13 30 -31 60 -39 67 -11 9 -76 12 -227
13 -206 0 -212 -1 -218 -21 l-7 -21 -15 21 c-14 20 -23 21 -225 21 -182 0
-214 -2 -230 -16 -16 -16 -18 -16 -24 0 -5 14 -31 16 -223 16 l-217 0 -17 -38
c-9 -21 -17 -46 -17 -55 0 -25 -27 -10 -34 19 -4 13 -13 24 -22 24 -8 0 -12 5
-9 10 4 6 1 17 -5 25 -10 12 -47 15 -191 15 -113 0 -179 -4 -179 -10 0 -5 -7
-10 -15 -10 -8 0 -15 5 -15 10 0 6 -46 10 -119 10 -110 0 -121 -2 -134 -21
l-15 -21 -7 21 c-6 20 -12 21 -218 21 -151 -1 -216 -4 -227 -13z m2609 -34 c0
-11 -3 -13 -6 -5 -3 9 -55 12 -210 12 -190 0 -204 -1 -199 -17 3 -10 32 -157
66 -328 34 -171 63 -318 66 -327 5 -16 28 -18 252 -21 l247 -2 -252 -3 c-139
-1 -253 -1 -253 1 0 2 -31 160 -70 352 -38 192 -70 350 -70 352 0 2 97 3 215
3 198 0 215 -1 214 -17z m-2475 -170 c-45 -138 -49 -197 -14 -206 57 -15 114
76 114 185 l1 68 48 0 c55 0 55 2 30 -112 -16 -75 -18 -78 -44 -78 -33 0 -52
-24 -69 -89 -15 -57 -6 -89 25 -97 26 -6 29 -20 16 -79 -6 -27 -10 -30 -48
-30 l-41 0 5 66 c5 52 2 71 -12 92 -36 55 -71 29 -107 -82 l-25 -74 -47 -1
c-37 -1 -46 2 -43 14 2 8 33 117 67 243 l63 227 48 0 48 0 -15 -47z m481 15
c-3 -18 -19 -123 -35 -233 -17 -110 -32 -206 -35 -212 -7 -20 -85 -17 -85 3 0
20 69 433 76 457 4 12 16 17 45 17 39 0 40 0 34 -32z m463 7 l23 -24 -10 -192
c-6 -107 -15 -197 -20 -202 -6 -6 -11 -18 -11 -26 0 -14 -20 -16 -139 -16 -77
0 -142 3 -146 6 -5 6 26 342 41 442 l6 37 116 0 c111 0 118 -2 140 -25z m505
10 c5 -11 -7 -15 -56 -17 -60 -3 -63 -4 -79 -38 -19 -38 -18 -104 2 -124 6 -6
41 -13 78 -16 54 -4 67 -8 70 -23 3 -17 -3 -18 -58 -16 l-62 3 -20 -40 c-23
-46 -20 -115 7 -144 15 -16 31 -20 87 -20 58 0 68 -3 68 -18 0 -16 -14 -17
-155 -18 l-155 0 0 243 0 243 134 0 c108 0 135 -3 139 -15z m312 -7 c-22 -69
1 -199 41 -224 30 -21 72 -8 80 23 10 38 -1 125 -19 162 -26 53 -23 61 28 61
50 0 46 6 65 -104 13 -80 13 -89 -5 -82 -10 3 -17 -3 -21 -19 -3 -14 -10 -25
-15 -25 -13 0 -11 -72 4 -103 7 -15 27 -33 48 -41 28 -11 38 -22 43 -47 12
-63 10 -69 -34 -69 -31 0 -40 4 -40 17 0 23 -19 79 -43 131 -41 85 -101 33
-98 -84 l2 -64 -41 0 c-23 0 -42 5 -45 13 -2 6 -14 100 -25 207 -11 107 -23
212 -26 233 l-6 37 57 0 c55 0 57 -1 50 -22z m669 7 c4 -12 -5 -15 -49 -15
-47 0 -57 -3 -71 -25 -20 -30 -21 -64 -5 -104 16 -36 48 -51 115 -51 31 0 58
-5 64 -12 8 -11 70 -217 76 -252 0 -5 -68 -10 -157 -10 -143 -1 -157 1 -157
17 0 14 9 17 56 17 83 0 102 31 75 125 -19 67 -29 74 -111 77 l-74 3 -22 105
c-34 155 -47 140 115 140 114 0 140 -3 145 -15z"/>
<path d="M1201 643 c-25 -70 -42 -237 -29 -296 15 -71 72 -78 106 -12 25 50
35 282 13 309 -8 9 -11 19 -8 23 11 11 -14 33 -38 33 -18 0 -27 -11 -44 -57z"/>
</g>
</svg>
