<?xml version="1.0" standalone="no"?>
<!DOCTYPE svg PUBLIC "-//W3C//DTD SVG 20010904//EN"
 "http://www.w3.org/TR/2001/REC-SVG-20010904/DTD/svg10.dtd">
<svg version="1.0" xmlns="http://www.w3.org/2000/svg"
 width="320.000000pt" height="160.000000pt" viewBox="0 0 320.000000 160.000000"
 preserveAspectRatio="xMidYMid meet">

<g transform="translate(0.000000,160.000000) scale(0.100000,-0.100000)"
fill="#000000" stroke="none">
<path d="M423 1558 c-6 -7 -45 -120 -87 -252 -68 -213 -75 -241 -63 -265 l12
-26 187 -3 c177 -2 189 -1 208 18 11 11 20 30 21 43 0 19 2 18 11 -8 20 -56
17 -55 220 -55 l189 0 24 26 c14 15 25 22 25 16 0 -6 7 -18 16 -26 23 -24 379
-24 405 0 16 15 20 15 41 0 19 -13 54 -16 203 -16 99 0 185 4 192 8 28 18 29
57 6 260 -13 114 -27 225 -31 247 l-8 40 -187 3 -187 2 0 -25 c0 -14 -4 -25
-10 -25 -5 0 -10 11 -10 25 l0 25 -189 0 -189 0 -10 -37 -10 -38 -1 38 -1 37
-184 0 c-200 0 -192 2 -213 -60 l-12 -35 2 45 2 45 -181 3 c-137 2 -184 -1
-191 -10z m358 -25 c-5 -25 -6 -26 -9 -6 -3 22 -6 23 -175 26 l-172 3 181 2
181 2 -6 -27z m409 20 c0 -5 -81 -8 -180 -8 -99 0 -180 3 -180 8 0 4 81 7 180
7 99 0 180 -3 180 -7z m398 -80 l-2 -88 -3 83 -4 82 -169 0 -169 0 4 -32 c4
-29 4 -30 -4 -8 -18 51 -23 50 169 50 l180 0 -2 -87z m401 50 c0 -21 -5 -47
-10 -58 -6 -14 -7 -3 -3 33 l6 52 -171 0 -171 0 0 -235 0 -235 194 0 c146 0
196 3 199 13 3 7 6 5 6 -5 1 -17 -15 -18 -204 -18 l-205 0 0 245 0 245 180 0
180 0 -1 -37z m-1560 -14 c-5 -3 -7 -14 -3 -24 5 -13 4 -16 -5 -10 -10 6 -11
2 -6 -15 5 -16 4 -20 -5 -15 -9 5 -10 1 -5 -15 5 -17 4 -21 -6 -15 -9 6 -11 2
-6 -15 4 -16 3 -20 -4 -13 -8 8 -4 33 12 82 14 43 26 66 30 59 5 -7 4 -15 -2
-19z m410 -22 c1 -5 -4 -5 -11 -1 -8 5 -9 -2 -5 -27 5 -26 4 -30 -4 -17 -5 10
-7 34 -3 55 6 31 8 34 15 18 4 -11 8 -24 8 -28z m339 -32 l1 -20 -9 20 c-5 11
-8 34 -8 50 l0 30 8 -30 c4 -16 8 -39 8 -50z m642 0 c8 19 9 19 9 -2 1 -14 -5
-23 -14 -23 -12 0 -15 12 -13 53 l2 52 4 -50 c3 -38 6 -45 12 -30z m-1056 -2
c-6 -31 -8 -34 -15 -18 -11 29 -10 37 3 29 8 -5 9 2 5 27 -5 26 -4 30 4 17 5
-10 7 -34 3 -55z m474 -53 c0 -23 -1 -22 -8 5 -4 17 -8 48 -8 70 l1 40 8 -45
c4 -25 7 -56 7 -70z m-515 73 c2 -5 -3 -39 -12 -78 -16 -68 -17 -70 -49 -73
-33 -3 -48 -21 -39 -45 2 -6 4 -15 3 -19 0 -3 8 -17 20 -30 18 -20 20 -29 12
-65 l-9 -43 -60 0 c-56 0 -59 1 -54 23 2 12 6 38 7 57 3 29 -1 36 -18 38 -19
3 -25 -6 -41 -55 l-20 -58 -56 -3 c-42 -2 -57 0 -57 10 0 17 89 307 101 330 9
16 25 18 139 18 71 0 131 -3 133 -7z m417 -10 c0 -10 -9 -90 -20 -178 -11 -88
-20 -161 -20 -162 0 -2 -70 -3 -156 -3 l-156 0 5 23 c3 12 17 85 32 161 14 77
31 148 36 158 9 16 25 18 144 18 122 0 135 -2 135 -17z m405 -8 c0 -18 -8 -20
-82 -23 l-82 -3 -7 -55 c-9 -77 -1 -174 17 -185 8 -5 42 -9 75 -9 64 0 92 -15
80 -45 -4 -12 -31 -15 -154 -15 -82 0 -151 2 -153 5 -6 5 18 296 26 333 5 22
7 23 143 20 129 -3 137 -4 137 -23z m246 -20 c16 -64 47 -59 54 8 1 12 3 25 4
30 0 4 21 7 46 7 40 0 47 -3 55 -26 6 -14 10 -41 10 -60 0 -29 -3 -34 -24 -34
-14 0 -28 -5 -31 -10 -10 -16 17 -79 37 -86 25 -8 36 -31 39 -89 l3 -50 -56
-3 c-63 -3 -64 -2 -70 78 -3 30 -7 35 -28 35 -23 0 -25 -4 -28 -57 l-3 -58
-58 0 -58 0 -7 171 c-3 94 -4 175 -1 180 4 5 28 9 55 9 l50 0 11 -45z m199
-55 c-10 -23 -10 -22 -5 9 3 18 6 45 7 60 1 19 2 16 5 -9 2 -20 -1 -47 -7 -60z
m-1203 58 c-3 -8 -6 -5 -6 6 -1 11 2 17 5 13 3 -3 4 -12 1 -19z m376 -38 c4
-36 3 -46 -3 -30 -8 25 -13 97 -6 89 2 -2 6 -29 9 -59z m-349 5 c5 -22 4 -26
-4 -15 -5 8 -10 24 -10 34 0 26 6 18 14 -19z m-70 -42 c-6 -31 -8 -34 -15 -18
-11 29 -10 37 3 29 8 -5 9 2 5 27 -5 26 -4 30 4 17 5 -10 7 -34 3 -55z m738
50 l-84 -4 6 -67 c4 -54 3 -59 -4 -27 -5 22 -9 55 -9 73 l-1 32 88 -2 87 -2
-83 -3z m-259 -78 c4 -54 4 -61 -3 -30 -9 40 -13 112 -6 104 2 -2 6 -35 9 -74z
m-419 20 c5 -22 4 -26 -4 -15 -5 8 -10 24 -10 34 0 26 6 18 14 -19z m-414 -10
c0 -5 -5 -3 -10 5 -5 8 -10 20 -10 25 0 6 5 3 10 -5 5 -8 10 -19 10 -25z
m1615 -42 c-9 -76 -17 -61 -8 18 3 35 8 58 11 51 2 -7 1 -38 -3 -69z m-1238
45 c-3 -8 -6 -5 -6 6 -1 11 2 17 5 13 3 -3 4 -12 1 -19z m386 -43 c4 -39 3
-50 -2 -30 -9 31 -14 102 -7 94 2 -2 6 -31 9 -64z m465 -35 c0 -42 0 -43 -10
-17 -9 27 -11 27 -94 27 -82 0 -84 1 -84 24 0 29 16 36 88 36 31 0 64 5 72 10
19 12 28 -15 28 -80z m-1238 45 c0 -5 -5 -3 -10 5 -5 8 -10 20 -10 25 0 6 5 3
10 -5 5 -8 10 -19 10 -25z m1580 12 c33 -4 33 -4 -7 -5 -35 -2 -43 1 -43 16 0
11 3 13 8 5 4 -6 23 -13 42 -16z m-1230 -31 c0 -26 -6 -18 -14 19 -5 22 -4 26
4 15 5 -8 10 -24 10 -34z m64 9 c5 -23 4 -27 -5 -15 -8 12 -9 6 -5 -25 4 -27
2 -35 -4 -25 -8 12 -10 10 -10 -9 0 -13 -3 -22 -6 -19 -3 3 0 34 7 67 6 34 13
60 14 59 1 -2 5 -16 9 -33z m863 -132 c-2 -32 -3 -6 -3 57 0 63 1 89 3 58 2
-32 2 -84 0 -115z m-1287 114 c0 -5 -5 -5 -11 -1 -8 4 -9 -1 -4 -16 5 -17 4
-21 -6 -15 -9 6 -11 2 -7 -13 4 -14 2 -20 -4 -16 -7 5 -9 -3 -4 -22 5 -23 4
-26 -5 -14 -8 12 -9 8 -5 -15 5 -24 4 -27 -4 -12 -13 21 29 165 42 144 4 -6 8
-16 8 -20z m387 11 c-3 -8 -6 -5 -6 6 -1 11 2 17 5 13 3 -3 4 -12 1 -19z m721
-50 l87 -3 1 -70 0 -70 -3 68 -4 67 -89 0 -90 0 2 43 1 42 4 -37 4 -37 87 -3z
m-808 39 c21 -4 20 -4 -7 -6 -25 -1 -33 3 -33 17 0 11 3 13 8 6 4 -7 18 -14
32 -17z m537 -39 c-2 -13 -4 -3 -4 22 0 25 2 35 4 23 2 -13 2 -33 0 -45z m-70
-10 c-2 -13 -4 -5 -4 17 -1 22 1 32 4 23 2 -10 2 -28 0 -40z m880 -10 c-2 -13
-4 -3 -4 22 0 25 2 35 4 23 2 -13 2 -33 0 -45z m-1303 -2 c-7 -42 -9 -42 -18
-1 -5 22 -4 26 4 15 8 -12 10 -10 10 9 0 13 3 22 6 19 3 -3 2 -22 -2 -42z m33
22 c-3 -8 -6 -5 -6 6 -1 11 2 17 5 13 3 -3 4 -12 1 -19z m843 -78 l0 -100
-205 0 -205 0 1 23 c1 16 2 18 6 5 4 -16 22 -18 199 -18 l194 0 0 95 c0 52 2
95 5 95 3 0 5 -45 5 -100z m-853 38 c-3 -8 -6 -5 -6 6 -1 11 2 17 5 13 3 -3 4
-12 1 -19z m1095 -25 c-5 -83 -9 -90 -11 -20 0 37 2 67 7 67 4 0 6 -21 4 -47z
m-615 0 c-3 -10 -5 -4 -5 12 0 17 2 24 5 18 2 -7 2 -21 0 -30z m-698 -18 c0
-5 -4 -3 -9 5 -8 13 -10 12 -10 -4 0 -11 -2 -17 -5 -14 -4 3 -3 18 1 34 6 25
8 26 15 9 4 -11 8 -24 8 -30z m628 8 c-3 -10 -5 -4 -5 12 0 17 2 24 5 18 2 -7
2 -21 0 -30z m50 -25 c-2 -13 -4 -3 -4 22 0 25 2 35 4 23 2 -13 2 -33 0 -45z
m-440 20 c-3 -7 -5 -2 -5 12 0 14 2 19 5 13 2 -7 2 -19 0 -25z m370 -20 c-2
-13 -4 -5 -4 17 -1 22 1 32 4 23 2 -10 2 -28 0 -40z m880 15 c-3 -10 -5 -4 -5
12 0 17 2 24 5 18 2 -7 2 -21 0 -30z m20 -25 c-2 -13 -4 -3 -4 22 0 25 2 35 4
23 2 -13 2 -33 0 -45z m-1333 -2 c-7 -42 -9 -42 -18 -1 -5 22 -4 26 4 15 8
-12 10 -10 10 9 0 13 3 22 6 19 3 -3 2 -22 -2 -42z m33 22 c-3 -8 -6 -5 -6 6
-1 11 2 17 5 13 3 -3 4 -12 1 -19z m-407 -33 c0 -5 -5 -3 -10 5 -5 8 -10 20
-10 25 0 6 5 3 10 -5 5 -8 10 -19 10 -25z m427 -7 c-3 -7 -5 -2 -5 12 0 14 2
19 5 13 2 -7 2 -19 0 -25z m1100 10 c-3 -8 -6 -5 -6 6 -1 11 2 17 5 13 3 -3 4
-12 1 -19z m-1365 -20 c-8 -8 -9 -4 -5 13 4 13 8 18 11 10 2 -7 -1 -18 -6 -23z
m235 0 c-3 -8 -6 -5 -6 6 -1 11 2 17 5 13 3 -3 4 -12 1 -19z m423 -13 l0 -25
-205 0 c-189 0 -205 1 -204 18 0 10 3 12 6 5 3 -10 53 -13 199 -13 187 0 194
1 194 20 0 11 2 20 5 20 3 0 5 -11 5 -25z m-652 -13 c106 2 192 0 192 -4 0 -5
-92 -8 -205 -8 -182 0 -204 2 -198 16 4 11 8 12 13 4 5 -7 64 -10 198 -8z"/>
<path d="M556 1438 c-23 -58 -26 -84 -11 -104 12 -17 15 -18 30 -3 15 15 37
117 28 132 -10 17 -35 4 -47 -25z m36 15 c-6 -2 -9 -10 -6 -15 4 -7 2 -8 -4
-4 -18 11 -14 26 6 25 10 0 12 -3 4 -6z m-12 -56 c0 -5 -5 -5 -12 -1 -8 5 -9
0 -6 -14 4 -14 2 -22 -7 -22 -10 0 -11 7 -2 35 7 24 13 31 19 23 4 -7 8 -17 8
-21z"/>
<path d="M965 1418 c-18 -52 -33 -181 -25 -204 23 -60 57 10 67 138 6 75 5 78
-16 78 -12 0 -24 -6 -26 -12z m27 -7 c-9 -5 -12 -20 -8 -47 5 -29 4 -34 -3
-19 -17 35 -13 75 7 75 13 0 14 -2 4 -9z m-19 -106 c5 -28 4 -34 -3 -20 -8 19
-14 73 -6 64 2 -2 6 -22 9 -44z m-11 -40 c3 -14 1 -25 -3 -25 -5 0 -9 11 -9
25 0 14 2 25 4 25 2 0 6 -11 8 -25z"/>
<path d="M2020 1523 c0 -27 11 -140 25 -253 14 -113 25 -208 25 -212 0 -5 9
-17 20 -28 19 -19 33 -20 204 -20 200 0 207 2 208 57 0 15 -11 78 -25 138 -14
61 -28 130 -31 155 -5 39 -4 41 5 17 6 -15 21 -30 34 -33 37 -9 45 -25 80
-164 18 -72 41 -140 51 -151 14 -16 31 -19 109 -19 134 0 138 10 82 196 -21
67 -37 123 -37 126 0 3 8 8 19 11 32 8 34 51 4 140 l-28 82 -173 3 -172 2 -1
-37 -1 -38 -12 35 -13 35 -186 3 -187 2 0 -47z m370 20 c0 -10 -5 -25 -11 -33
-8 -12 -9 -9 -5 13 l6 27 -169 0 c-168 0 -170 0 -174 -22 -4 -20 -4 -19 -6 5
l-1 27 180 0 c165 0 180 -1 180 -17z m363 -11 c-2 -15 1 -21 8 -16 8 4 9 -1 4
-16 -5 -16 -4 -20 5 -15 9 5 10 2 5 -14 -4 -13 -2 -21 5 -21 8 0 8 -6 0 -20
-6 -11 -21 -20 -35 -20 -13 0 -26 -6 -28 -12 -3 -8 -6 -6 -6 5 -1 12 7 17 29
17 35 0 35 3 15 61 -9 24 -13 49 -10 57 4 10 -25 12 -155 10 -88 -2 -160 0
-160 5 0 4 73 6 163 5 l162 -3 -2 -23z m-306 -34 c-3 -7 -5 -2 -5 12 0 14 2
19 5 13 2 -7 2 -19 0 -25z m-396 -29 c-8 -38 -9 -40 -10 -12 -1 17 2 39 5 48
11 29 14 10 5 -36z m355 -32 c-2 -7 -5 -2 -5 11 -1 15 -5 21 -13 16 -8 -5 -9
-2 -5 10 4 10 7 23 8 29 0 7 5 -3 10 -21 6 -19 8 -39 5 -45z m55 32 c-5 -13
-10 -19 -10 -12 -1 15 10 45 15 40 3 -2 0 -15 -5 -28z m-34 -1 c-3 -8 -6 -5
-6 6 -1 11 2 17 5 13 3 -3 4 -12 1 -19z m-69 -15 c3 -21 0 -23 -52 -23 -30 0
-58 -5 -61 -11 -4 -5 1 -26 10 -45 15 -31 20 -34 60 -34 32 0 51 -6 65 -20 30
-30 17 -40 -52 -40 l-61 0 6 -36 c9 -52 23 -64 76 -64 53 0 66 -6 75 -38 l8
-23 -154 3 -153 3 -22 160 c-12 88 -22 168 -22 178 -1 16 10 17 137 15 134 -3
137 -4 140 -25z m377 7 c19 -21 20 -20 -32 -36 -16 -4 -11 -34 28 -174 16 -58
29 -112 29 -118 0 -9 -16 -12 -57 -10 l-58 3 -40 150 -40 150 -35 5 c-27 4
-36 10 -38 28 -3 22 -2 22 111 22 101 0 116 -2 132 -20z m-674 -71 c-7 -44 -9
-47 -10 -19 -1 36 9 84 15 77 3 -2 0 -28 -5 -58z m413 37 c-5 -21 -2 -25 23
-29 l28 -4 -28 -2 c-29 -1 -44 18 -33 44 9 24 17 17 10 -9z m-149 -15 l-60 -5
70 -6 70 -6 -72 -2 c-59 -2 -73 1 -73 13 0 12 13 15 63 13 l62 -2 -60 -5z m96
-79 c-9 -24 -10 -22 -5 13 4 32 3 37 -6 25 -10 -13 -11 -12 -6 3 3 10 6 26 7
35 0 9 5 2 10 -16 7 -22 7 -43 0 -60z m139 71 c0 -10 -5 -25 -10 -33 -8 -11
-9 -8 -4 12 5 24 3 27 -28 31 l-33 4 38 1 c29 2 37 -2 37 -15z m244 2 c4 -12
-2 -15 -27 -14 -23 1 -26 3 -9 6 12 2 22 9 22 14 0 14 7 11 14 -6z m-63 -69
c-9 -19 -10 -18 -4 8 4 20 3 27 -5 22 -8 -5 -10 -1 -5 10 5 15 7 15 16 -1 6
-11 5 -24 -2 -39z m-670 -27 c-5 -30 -9 -42 -10 -28 -1 30 10 92 15 86 3 -2 0
-28 -5 -58z m524 -48 c14 -57 23 -106 20 -109 -3 -3 -5 3 -5 14 0 16 -2 17
-10 4 -7 -11 -8 -5 -4 20 4 27 3 31 -5 20 -8 -11 -10 -7 -5 20 4 27 3 31 -5
20 -8 -11 -10 -7 -5 20 4 27 3 31 -5 20 -8 -11 -10 -7 -5 20 4 26 3 31 -5 20
-6 -9 -11 -10 -11 -3 0 14 11 45 15 41 2 -2 15 -50 30 -107z m-163 27 c-6 -6
-7 0 -4 19 5 21 7 23 10 9 2 -10 0 -22 -6 -28z m339 -55 c-9 -15 -10 -12 -5
12 4 23 3 27 -5 15 -9 -12 -10 -9 -5 14 5 21 4 27 -5 22 -13 -8 -14 -5 -4 20
5 14 10 9 21 -24 10 -30 11 -46 3 -59z m-690 -9 c-5 -35 -9 -46 -10 -28 -1 34
9 97 15 91 2 -2 0 -30 -5 -63z m372 -31 c-7 -19 -9 -11 -9 34 -1 52 0 54 8 25
5 -19 5 -45 1 -59z m-93 54 l65 -4 -69 1 c-53 1 -70 5 -73 16 -3 11 -2 11 4 3
5 -7 38 -14 73 -16z m446 -101 c-2 -6 -5 -2 -5 9 -1 17 -3 18 -11 5 -8 -11 -9
-7 -4 15 4 24 3 27 -6 15 -10 -13 -11 -12 -6 3 3 10 6 24 7 30 0 7 7 -6 15
-27 8 -22 12 -45 10 -50z m-709 32 c-3 -7 -5 -2 -5 12 0 14 2 19 5 13 2 -7 2
-19 0 -25z m381 -53 c0 -16 -2 -15 -8 5 -6 19 -8 21 -9 6 -1 -11 -3 -17 -6
-14 -3 3 -2 20 2 39 7 33 7 33 14 9 4 -14 7 -34 7 -45z m-391 -17 c-2 -13 -4
-5 -4 17 -1 22 1 32 4 23 2 -10 2 -28 0 -40z m546 12 c3 -11 1 -18 -4 -14 -5
3 -9 12 -9 20 0 20 7 17 13 -6z m196 -37 c1 -10 -27 -13 -109 -13 -98 0 -110
2 -109 18 0 10 3 12 6 5 3 -9 34 -13 104 -13 l99 0 -5 28 c-4 22 -4 24 4 7 5
-11 10 -26 10 -32z m-339 2 c0 -13 -28 -15 -202 -13 l-203 3 198 2 c120 2 197
7 197 13 0 6 2 10 5 10 3 0 5 -7 5 -15z"/>
<path d="M286 868 c-8 -13 -60 -175 -116 -362 -73 -245 -99 -347 -95 -367 13
-58 17 -59 245 -59 129 0 218 4 233 11 13 6 32 24 42 41 l18 31 14 -34 c8 -18
19 -37 26 -41 7 -4 59 -8 116 -8 l104 0 33 35 c30 33 33 34 39 15 15 -46 42
-52 225 -48 166 3 173 4 189 26 9 13 31 42 50 65 68 84 71 97 71 354 l0 232
-26 38 c-14 21 -28 40 -32 43 -4 3 -12 14 -18 25 -10 19 -23 20 -179 23 -109
2 -172 -1 -180 -8 -8 -6 -17 -30 -21 -53 l-8 -42 -6 50 -5 50 -114 3 c-63 1
-118 -1 -124 -7 -5 -5 -17 -40 -27 -77 l-18 -69 1 75 2 75 -212 3 c-211 2
-212 2 -227 -20z m434 -5 c0 -5 -94 -7 -210 -5 l-209 3 -7 -26 c-3 -14 -8 -24
-11 -22 -2 3 -1 16 3 31 l6 26 214 0 c118 0 214 -3 214 -7z m228 0 c-32 -2
-86 -2 -120 0 -35 2 -9 3 57 3 66 0 94 -1 63 -3z m275 0 l-172 -3 -4 -28 c-4
-25 -4 -24 -6 6 l-1 32 178 -2 177 -2 -172 -3z m-458 -68 c-4 -25 -9 -44 -12
-41 -2 2 -1 25 2 51 4 25 9 44 12 41 2 -2 1 -25 -2 -51z m-58 13 c-3 -7 -5 -2
-5 12 0 14 2 19 5 13 2 -7 2 -19 0 -25z m260 -15 c-3 -10 -5 -4 -5 12 0 17 2
24 5 18 2 -7 2 -21 0 -30z m457 19 c-6 -4 -14 -14 -17 -22 -4 -10 -6 -8 -6 8
-1 15 5 22 17 22 10 0 13 -3 6 -8z m-387 -64 c-2 -13 -4 -5 -4 17 -1 22 1 32
4 23 2 -10 2 -28 0 -40z m-340 10 c-3 -7 -5 -2 -5 12 0 14 2 19 5 13 2 -7 2
-19 0 -25z m-433 -22 c-3 -15 -8 -25 -11 -23 -2 3 -1 17 3 31 3 15 8 25 11 23
2 -3 1 -17 -3 -31z m380 26 c4 -7 -26 -171 -40 -214 -3 -11 -18 -18 -42 -20
-30 -2 -38 -8 -46 -31 -7 -20 -7 -34 2 -47 7 -11 12 -27 12 -35 0 -8 6 -15 14
-15 24 0 27 -15 16 -72 -20 -98 -21 -99 -93 -96 -70 3 -66 -6 -52 116 l7 63
-29 -3 c-23 -2 -30 -10 -40 -43 -6 -22 -17 -60 -25 -85 l-13 -45 -64 -3 c-35
-2 -68 1 -72 5 -11 11 128 493 148 516 14 15 36 17 164 17 81 0 150 -3 153 -8z
m283 -9 c8 -20 -55 -479 -68 -506 -8 -13 -23 -17 -74 -17 -35 0 -66 3 -68 8
-3 4 15 117 39 252 24 135 44 246 44 247 0 1 7 9 16 17 22 23 102 22 111 -1z
m30 -30 c-3 -10 -5 -2 -5 17 0 19 2 27 5 18 2 -10 2 -26 0 -35z m437 16 l26
-31 -5 -156 c-8 -214 -11 -243 -34 -259 -11 -7 -21 -23 -23 -36 -3 -22 -6 -22
-162 -25 -88 -1 -163 1 -167 5 -10 11 49 503 62 520 9 10 45 13 144 13 l133 0
26 -31z m75 -1 l-1 -33 -7 30 c-4 17 -5 -69 -3 -190 3 -121 2 -218 0 -215 -3
3 -8 103 -11 223 -4 183 -3 217 9 217 9 0 14 -11 13 -32z m-782 -30 c-3 -7 -5
-2 -5 12 0 14 2 19 5 13 2 -7 2 -19 0 -25z m60 0 c-3 -7 -5 -2 -5 12 0 14 2
19 5 13 2 -7 2 -19 0 -25z m-30 -10 c-3 -7 -5 -2 -5 12 0 14 2 19 5 13 2 -7 2
-19 0 -25z m310 -30 c-2 -13 -4 -5 -4 17 -1 22 1 32 4 23 2 -10 2 -28 0 -40z
m-80 -15 c-3 -10 -5 -2 -5 17 0 19 2 27 5 18 2 -10 2 -26 0 -35z m-270 5 c-3
-7 -5 -2 -5 12 0 14 2 19 5 13 2 -7 2 -19 0 -25z m58 -23 c-4 -25 -9 -44 -12
-41 -2 2 -1 25 2 51 4 25 9 44 12 41 2 -2 1 -25 -2 -51z m-28 13 c-3 -7 -5 -2
-5 12 0 14 2 19 5 13 2 -7 2 -19 0 -25z m-473 -12 c-3 -15 -8 -25 -11 -23 -2
3 -1 17 3 31 3 15 8 25 11 23 2 -3 1 -17 -3 -31z m433 -28 c-3 -7 -5 -2 -5 12
0 14 2 19 5 13 2 -7 2 -19 0 -25z m350 -20 c-2 -13 -4 -5 -4 17 -1 22 1 32 4
23 2 -10 2 -28 0 -40z m-80 -5 c-3 -10 -5 -2 -5 17 0 19 2 27 5 18 2 -10 2
-26 0 -35z m-240 5 c-3 -7 -5 -2 -5 12 0 14 2 19 5 13 2 -7 2 -19 0 -25z m740
-160 c-2 -35 -3 -7 -3 62 0 69 1 97 3 63 2 -35 2 -91 0 -125z m-1228 123 c-7
-23 -14 -39 -16 -37 -3 2 1 23 8 45 7 23 14 39 16 37 3 -2 -1 -23 -8 -45z
m448 7 c-3 -7 -5 -2 -5 12 0 14 2 19 5 13 2 -7 2 -19 0 -25z m60 -10 c-3 -7
-5 -2 -5 12 0 14 2 19 5 13 2 -7 2 -19 0 -25z m-30 -10 c-3 -7 -5 -2 -5 12 0
14 2 19 5 13 2 -7 2 -19 0 -25z m240 -25 c-3 -10 -5 -2 -5 17 0 19 2 27 5 18
2 -10 2 -26 0 -35z m80 -5 c-2 -13 -4 -5 -4 17 -1 22 1 32 4 23 2 -10 2 -28 0
-40z m-360 0 c-3 -7 -5 -2 -5 12 0 14 2 19 5 13 2 -7 2 -19 0 -25z m60 -10
c-3 -7 -5 -2 -5 12 0 14 2 19 5 13 2 -7 2 -19 0 -25z m-30 -10 c-3 -7 -5 -2
-5 12 0 14 2 19 5 13 2 -7 2 -19 0 -25z m-142 3 c-5 -16 0 -20 27 -24 l33 -4
-37 -1 c-38 -2 -43 3 -32 32 9 23 17 20 9 -3z m-356 -40 c-7 -23 -14 -39 -16
-37 -3 2 1 23 8 45 7 23 14 39 16 37 3 -2 -1 -23 -8 -45z m458 7 c-3 -7 -5 -2
-5 12 0 14 2 19 5 13 2 -7 2 -19 0 -25z m280 -15 c-3 -10 -5 -2 -5 17 0 19 2
27 5 18 2 -10 2 -26 0 -35z m-222 -18 c-4 -25 -9 -44 -12 -41 -2 2 -1 25 2 51
4 25 9 44 12 41 2 -2 1 -25 -2 -51z m302 3 c-2 -13 -4 -5 -4 17 -1 22 1 32 4
23 2 -10 2 -28 0 -40z m-370 -20 c-3 -7 -5 -2 -5 12 0 14 2 19 5 13 2 -7 2
-19 0 -25z m280 -35 c-3 -10 -5 -2 -5 17 0 19 2 27 5 18 2 -10 2 -26 0 -35z
m-758 -22 c-7 -23 -14 -39 -16 -37 -3 2 1 23 8 45 7 23 14 39 16 37 3 -2 -1
-23 -8 -45z m211 -51 c-12 -50 -24 -89 -26 -87 -3 2 6 45 18 95 12 50 24 89
26 87 3 -2 -6 -45 -18 -95z m625 25 c-4 -36 -10 -64 -12 -61 -3 2 -2 34 2 71
4 36 10 64 12 61 3 -2 2 -34 -2 -71z m-368 33 c-3 -7 -5 -2 -5 12 0 14 2 19 5
13 2 -7 2 -19 0 -25z m60 -20 c-3 -7 -5 -2 -5 12 0 14 2 19 5 13 2 -7 2 -19 0
-25z m-30 0 c-3 -8 -6 -5 -6 6 -1 11 2 17 5 13 3 -3 4 -12 1 -19z m248 -53
c-4 -31 -9 -54 -12 -51 -3 2 -1 30 2 61 4 31 9 54 12 51 3 -2 1 -30 -2 -61z
m-288 23 c-3 -7 -5 -2 -5 12 0 14 2 19 5 13 2 -7 2 -19 0 -25z m60 -20 c-3 -7
-5 -2 -5 12 0 14 2 19 5 13 2 -7 2 -19 0 -25z m778 10 c6 -4 2 -8 -7 -8 -10 0
-18 7 -18 17 0 9 3 12 8 7 4 -5 12 -12 17 -16z m-1326 -47 c-7 -23 -14 -39
-16 -37 -3 2 1 23 8 45 7 23 14 39 16 37 3 -2 -1 -23 -8 -45z m518 27 c-3 -8
-6 -5 -6 6 -1 11 2 17 5 13 3 -3 4 -12 1 -19z m-40 -20 c-3 -7 -5 -2 -5 12 0
14 2 19 5 13 2 -7 2 -19 0 -25z m58 -38 l-7 -49 129 -4 128 -3 -136 -2 -136
-2 10 55 c13 69 21 72 12 5z m-28 8 c-3 -8 -6 -5 -6 6 -1 11 2 17 5 13 3 -3 4
-12 1 -19z m340 -30 c-2 -13 -4 -5 -4 17 -1 22 1 32 4 23 2 -10 2 -28 0 -40z
m443 36 c0 -2 -9 -4 -20 -4 -11 0 -20 4 -20 9 0 5 9 7 20 4 11 -3 20 -7 20 -9z
m-823 -26 c-3 -7 -5 -2 -5 12 0 14 2 19 5 13 2 -7 2 -19 0 -25z m30 -30 c-3
-8 -6 -5 -6 6 -1 11 2 17 5 13 3 -3 4 -12 1 -19z m-37 -3 c0 -13 -34 -15 -252
-13 l-253 3 248 2 c153 2 247 7 247 13 0 6 2 10 5 10 3 0 5 -7 5 -15z m683
-12 c-56 -2 -151 -2 -210 0 -59 1 -13 3 102 3 116 0 164 -2 108 -3z"/>
<path d="M452 727 c-6 -7 -18 -43 -28 -80 -14 -58 -15 -72 -4 -93 8 -13 18
-23 24 -21 20 6 44 72 51 140 6 62 5 67 -13 67 -11 0 -24 -6 -30 -13z m35 -3
c-3 -3 -12 -4 -19 -1 -8 3 -5 6 6 6 11 1 17 -2 13 -5z m-40 -77 c-11 -41 -12
-57 -3 -61 6 -2 3 -5 -7 -5 -13 -1 -17 4 -13 17 3 9 10 39 17 65 6 26 14 46
16 43 2 -2 -2 -29 -10 -59z"/>
<path d="M1223 678 c-16 -19 -35 -262 -24 -292 15 -37 28 -39 48 -9 15 23 18
49 18 167 0 121 -2 141 -16 144 -9 1 -21 -3 -26 -10z m37 -12 c0 -2 -7 -6 -15
-10 -8 -3 -15 -1 -15 4 0 6 7 10 15 10 8 0 15 -2 15 -4z m-33 -113 c-2 -16 -4
-3 -4 27 0 30 2 43 4 28 2 -16 2 -40 0 -55z m4 -138 c5 4 9 1 9 -4 0 -6 -7
-11 -15 -11 -12 0 -15 12 -13 58 l2 57 3 -53 c2 -30 8 -50 14 -47z"/>
<path d="M1514 879 c-13 -22 -25 -304 -22 -532 3 -227 3 -229 27 -248 21 -17
41 -19 233 -19 115 0 217 4 227 10 38 20 44 60 32 207 -34 398 -52 567 -62
579 -15 18 -424 20 -435 3z m434 -66 l-2 -58 -3 53 -4 52 -204 0 -204 0 -4
-72 -3 -73 -2 78 -2 77 215 0 215 0 -2 -57z m-401 -30 c-3 -10 -5 -4 -5 12 0
17 2 24 5 18 2 -7 2 -21 0 -30z m380 -5 c-3 -7 -5 -2 -5 12 0 14 2 19 5 13 2
-7 2 -19 0 -25z m-38 -21 c6 -8 12 -24 13 -38 3 -23 1 -24 -70 -27 -81 -3 -88
-9 -78 -67 10 -51 29 -65 90 -65 60 0 76 -12 76 -57 l0 -32 -77 -3 -78 -3 1
-48 c0 -62 16 -76 94 -85 61 -7 65 -8 73 -39 18 -62 16 -63 -177 -63 -107 0
-177 4 -181 10 -3 6 -6 124 -5 262 0 186 4 254 13 260 7 4 76 8 153 8 106 0
144 -3 153 -13z m68 -94 c-2 -16 -4 -3 -4 27 0 30 2 43 4 28 2 -16 2 -40 0
-55z m-180 -25 c-3 -7 -5 -2 -5 12 0 14 2 19 5 13 2 -7 2 -19 0 -25z m-22
-468 l234 0 4 48 3 47 2 -52 2 -53 -245 0 -245 0 2 243 3 242 2 -237 3 -238
235 0z m212 368 c-2 -18 -4 -6 -4 27 0 33 2 48 4 33 2 -15 2 -42 0 -60z m10
-120 c-2 -18 -4 -6 -4 27 0 33 2 48 4 33 2 -15 2 -42 0 -60z m-47 -12 c14 -2
-14 -4 -62 -5 -49 0 -88 2 -88 7 0 6 92 6 150 -2z m57 -108 c-2 -18 -4 -6 -4
27 0 33 2 48 4 33 2 -15 2 -42 0 -60z"/>
<path d="M1984 865 c-3 -13 8 -180 25 -370 32 -364 39 -397 85 -409 32 -9 429
-7 443 2 7 4 18 23 26 41 l14 34 18 -31 c10 -17 29 -35 42 -41 35 -16 434 -15
456 2 40 29 33 68 -73 417 -56 184 -108 345 -116 358 -15 22 -16 22 -227 20
l-212 -3 -5 -55 -5 -55 -8 39 c-17 79 -6 76 -244 76 l-213 0 -6 -25z m436 -2
c0 -5 -64 -7 -142 -5 -268 4 -293 8 -75 10 119 1 217 -1 217 -5z m479 -10 c0
-11 -3 -13 -6 -5 -3 9 -55 12 -210 12 -190 0 -204 -1 -199 -17 3 -10 32 -157
66 -328 34 -171 63 -318 66 -327 5 -16 28 -18 252 -21 l247 -2 -252 -3 c-139
-1 -253 -1 -253 1 0 2 -31 160 -70 352 -38 192 -70 350 -70 352 0 2 97 3 215
3 198 0 215 -1 214 -17z m-892 -80 c-2 -16 -4 -3 -4 27 0 30 2 43 4 28 2 -16
2 -40 0 -55z m431 -13 c0 -22 -1 -22 -8 5 -4 17 -8 41 -8 55 0 22 1 22 8 -5 4
-16 8 -41 8 -55z m463 39 c-5 -13 -10 -19 -10 -12 -1 15 10 45 15 40 3 -2 0
-15 -5 -28z m19 -68 c-9 -23 -9 -23 -4 9 4 28 3 32 -6 20 -10 -13 -11 -12 -6
3 3 10 6 24 7 30 0 7 5 1 10 -12 6 -16 6 -33 -1 -50z m-546 23 c9 -8 16 -16
16 -17 0 -1 7 -40 15 -87 20 -115 20 -118 -12 -122 -22 -2 -29 -9 -31 -30 -4
-37 23 -85 58 -103 16 -8 32 -25 35 -38 18 -81 23 -112 19 -119 -8 -13 -122
-9 -131 5 -4 6 -15 46 -23 87 -14 71 -17 75 -43 78 l-29 3 3 -88 3 -88 -66 -3
c-56 -2 -68 0 -76 15 -13 24 -57 485 -49 506 6 15 24 17 151 17 118 0 147 -3
160 -16z m93 -6 c-3 -8 -6 -5 -6 6 -1 11 2 17 5 13 3 -3 4 -12 1 -19z m402 -4
c36 -46 29 -54 -49 -54 -67 0 -70 -1 -70 -24 0 -42 22 -87 47 -97 13 -5 44 -9
67 -9 29 0 48 -6 59 -18 19 -20 99 -290 91 -303 -3 -5 -84 -9 -179 -9 -162 0
-175 1 -185 19 -14 27 -13 81 3 82 21 3 71 7 89 8 10 1 24 16 33 37 12 30 13
41 2 63 -12 25 -17 26 -95 29 -45 2 -82 4 -82 6 0 1 -13 65 -29 141 -17 77
-28 143 -25 147 3 4 72 8 154 8 l149 0 20 -26z m-852 -81 c-2 -16 -4 -3 -4 27
0 30 2 43 4 28 2 -16 2 -40 0 -55z m430 35 c-3 -7 -5 -2 -5 12 0 14 2 19 5 13
2 -7 2 -19 0 -25z m30 -10 c-3 -7 -5 -2 -5 12 0 14 2 19 5 13 2 -7 2 -19 0
-25z m482 -38 c0 -9 -4 -8 -9 5 -5 11 -9 27 -9 35 0 9 4 8 9 -5 5 -11 9 -27 9
-35z m-502 -2 c-3 -7 -5 -2 -5 12 0 14 2 19 5 13 2 -7 2 -19 0 -25z m30 -10
c-3 -7 -5 -2 -5 12 0 14 2 19 5 13 2 -7 2 -19 0 -25z m391 25 c-21 -2 -57 -2
-80 0 -24 2 -7 4 37 4 44 0 63 -2 43 -4z m-851 -110 c-2 -16 -4 -3 -4 27 0 30
2 43 4 28 2 -16 2 -40 0 -55z m440 45 c-3 -7 -5 -2 -5 12 0 14 2 19 5 13 2 -7
2 -19 0 -25z m30 -10 c-3 -8 -6 -5 -6 6 -1 11 2 17 5 13 3 -3 4 -12 1 -19z
m492 -38 c0 -9 -4 -8 -9 5 -8 19 -9 19 -9 1 -1 -11 -3 -17 -6 -14 -4 3 -3 18
1 34 6 25 8 26 15 9 4 -11 8 -27 8 -35z m-501 -50 c0 -22 -1 -22 -8 5 -4 17
-8 41 -8 55 0 22 1 22 8 -5 4 -16 8 -41 8 -55z m-451 -57 c-2 -16 -4 -3 -4 27
0 30 2 43 4 28 2 -16 2 -40 0 -55z m384 26 l34 -6 -36 -2 c-36 -1 -50 12 -48
42 0 7 4 3 8 -8 5 -12 21 -22 42 -26z m579 16 c1 14 5 10 15 -15 7 -19 13 -42
13 -50 0 -8 -6 1 -13 20 -10 25 -14 29 -15 15 l-1 -20 -9 20 c-5 11 -9 27 -9
35 0 9 4 8 9 -5 l9 -20 1 20z m-503 -47 c-3 -7 -5 -2 -5 12 0 14 2 19 5 13 2
-7 2 -19 0 -25z m10 -50 c-3 -7 -5 -2 -5 12 0 14 2 19 5 13 2 -7 2 -19 0 -25z
m-460 -55 c-2 -16 -4 -3 -4 27 0 30 2 43 4 28 2 -16 2 -40 0 -55z m686 70
c-24 -2 -62 -2 -85 0 -24 2 -5 4 42 4 47 0 66 -2 43 -4z m-466 -35 c-3 -7 -5
-2 -5 12 0 14 2 19 5 13 2 -7 2 -19 0 -25z m270 10 c-3 -8 -6 -5 -6 6 -1 11 2
17 5 13 3 -3 4 -12 1 -19z m480 0 c-3 -8 -6 -5 -6 6 -1 11 2 17 5 13 3 -3 4
-12 1 -19z m41 -58 c0 -8 -6 1 -13 20 -7 19 -13 42 -13 50 0 8 6 -1 13 -20 7
-19 13 -42 13 -50z m-519 -85 c-1 -11 -7 7 -15 40 -7 33 -13 69 -13 80 1 11 7
-7 15 -40 7 -33 13 -69 13 -80z m-262 63 c-2 -13 -4 -5 -4 17 -1 22 1 32 4 23
2 -10 2 -28 0 -40z m270 30 c-3 -8 -6 -5 -6 6 -1 11 2 17 5 13 3 -3 4 -12 1
-19z m-490 -105 c-2 -16 -4 -3 -4 27 0 30 2 43 4 28 2 -16 2 -40 0 -55z m990
55 c-3 -8 -6 -5 -6 6 -1 11 2 17 5 13 3 -3 4 -12 1 -19z m41 -58 c0 -8 -6 1
-13 20 -7 19 -13 42 -13 50 0 8 6 -1 13 -20 7 -19 13 -42 13 -50z m-801 3 c-3
-10 -5 -2 -5 17 0 19 2 27 5 18 2 -10 2 -26 0 -35z m265 -38 l5 -25 -248 0
c-231 0 -249 1 -248 18 0 10 3 12 6 5 3 -10 61 -13 239 -13 227 0 234 1 234
20 0 28 7 25 12 -5z"/>
<path d="M2205 731 c-11 -19 13 -173 30 -190 15 -15 17 -15 31 4 12 15 14 35
10 83 -8 81 -21 112 -45 112 -11 0 -22 -4 -26 -9z m38 -8 c-7 -2 -19 -2 -25 0
-7 3 -2 5 12 5 14 0 19 -2 13 -5z m-16 -60 c-3 -10 -5 -2 -5 17 0 19 2 27 5
18 2 -10 2 -26 0 -35z m31 -76 c12 -3 10 -5 -5 -6 -20 -1 -23 4 -22 32 2 29 2
29 6 5 2 -15 12 -29 21 -31z"/>
</g>
</svg>
