<?xml version="1.0" standalone="no"?>
<!DOCTYPE svg PUBLIC "-//W3C//DTD SVG 20010904//EN"
 "http://www.w3.org/TR/2001/REC-SVG-20010904/DTD/svg10.dtd">
<svg version="1.0" xmlns="http://www.w3.org/2000/svg"
 width="322.000000pt" height="160.000000pt" viewBox="0 0 322.000000 160.000000"
 preserveAspectRatio="xMidYMid meet">
<metadata>
Created by potrace 1.15, written by Peter Selinger 2001-2017
</metadata>
<g transform="translate(0.000000,160.000000) scale(0.100000,-0.100000)"
fill="#000000" stroke="none">
<path d="M434 1572 c-5 -4 -19 -29 -31 -57 -31 -74 -163 -489 -163 -513 0 -11
7 -23 16 -26 8 -3 523 -6 1143 -6 l1128 0 12 26 c9 21 6 49 -19 161 -17 75
-28 138 -25 141 12 13 24 -19 50 -133 30 -132 45 -169 74 -185 11 -5 71 -10
134 -10 132 0 144 6 132 67 -5 32 -57 210 -71 248 -3 7 4 15 15 18 12 3 24 13
28 22 6 18 -34 151 -65 215 l-17 35 -170 3 c-144 2 -172 0 -181 -13 -10 -14
-12 -14 -18 0 -9 23 -371 22 -384 -1 -8 -15 -10 -15 -15 0 -6 14 -67 15 -591
16 -544 0 -586 -2 -595 -18 -10 -16 -10 -16 -11 1 0 16 -15 17 -182 17 -101 0
-188 -4 -194 -8z m363 -27 c-2 -11 -26 -122 -53 -247 l-49 -228 -207 0 c-161
0 -206 3 -203 13 2 6 36 113 75 237 39 124 72 230 74 235 2 6 73 10 185 10
177 0 182 -1 178 -20z m404 -22 c-1 -21 -13 -130 -25 -243 l-21 -205 -212 -3
c-168 -2 -212 0 -208 10 2 7 25 114 50 238 26 124 48 230 49 235 2 6 72 9 187
8 l183 -2 -3 -38z m407 -48 l3 -85 -90 0 -89 0 -4 -56 c-1 -31 -1 -58 1 -60 2
-2 44 -4 93 -4 l88 0 0 -100 0 -100 -210 0 c-161 0 -210 3 -210 13 0 20 41
461 45 472 1 6 71 9 186 8 l184 -2 3 -86z m392 80 c0 -5 11 -107 25 -225 14
-118 25 -225 25 -237 l0 -23 -205 0 -204 0 -3 246 c-2 135 -2 246 -1 247 1 1
83 2 182 2 114 0 181 -4 181 -10z m450 -230 c29 -132 55 -243 57 -247 2 -5
-90 -8 -205 -8 l-209 0 -30 243 c-16 133 -28 244 -27 247 1 3 83 5 182 5 l180
0 52 -240z m344 159 c14 -44 26 -83 26 -86 0 -4 -15 -8 -33 -10 l-33 -3 46
-155 46 -155 -109 -3 c-60 -1 -112 -1 -114 2 -3 2 -18 58 -34 123 -54 212 -46
193 -82 193 l-33 0 -21 85 c-11 46 -19 86 -17 87 1 2 76 3 167 3 l165 0 26
-81z"/>
<path d="M420 1398 c-23 -73 -52 -167 -65 -208 l-23 -75 65 -3 c37 -2 71 -1
78 1 6 3 17 30 24 61 10 44 16 56 32 56 10 0 19 -1 19 -2 0 -2 -7 -28 -15 -58
-8 -30 -15 -56 -15 -57 0 -2 33 -3 73 -3 l73 0 13 63 c7 34 15 73 18 85 5 22
3 23 -27 20 -17 -1 -32 0 -31 5 1 4 1 13 1 20 0 9 11 12 35 9 29 -4 35 -1 40
19 3 13 12 56 20 94 9 39 18 78 21 88 5 16 -6 17 -145 17 l-150 0 -41 -132z
m129 25 c-6 -15 -14 -32 -18 -38 -5 -5 -11 -29 -15 -51 -7 -49 8 -67 51 -62
22 2 33 13 50 48 12 25 24 63 26 85 4 37 7 40 37 43 28 3 32 1 26 -14 -4 -10
-10 -37 -13 -61 -5 -36 -9 -42 -32 -45 -18 -2 -31 -13 -43 -38 -25 -51 -23
-88 5 -101 18 -8 23 -17 19 -35 -3 -19 -11 -24 -34 -24 -29 0 -30 1 -23 39 8
46 -15 81 -53 81 -18 0 -28 -12 -49 -60 -24 -56 -28 -60 -58 -60 l-32 0 44
148 c24 81 45 153 48 160 2 6 20 12 39 12 34 0 35 -1 25 -27z"/>
<path d="M826 1343 c-20 -104 -39 -198 -41 -210 l-5 -23 170 0 c93 0 170 3
170 6 0 8 39 333 45 377 l5 37 -153 0 -154 0 -37 -187z m296 102 c2 -3 -4 -67
-13 -142 -10 -76 -18 -146 -19 -155 0 -16 -13 -18 -128 -18 l-128 0 30 160 30
160 111 0 c62 0 114 -2 117 -5z"/>
<path d="M973 1428 c-32 -44 -67 -215 -52 -255 18 -50 84 -31 105 30 7 21 16
71 20 111 5 60 3 78 -11 99 -18 29 -47 35 -62 15z"/>
<path d="M1266 1518 c-2 -7 -9 -78 -16 -158 -6 -80 -14 -169 -17 -197 l-6 -53
172 0 171 0 0 60 0 60 -90 0 -90 0 0 78 c0 127 -2 124 96 120 l84 -3 0 53 0
52 -150 0 c-112 0 -152 -3 -154 -12z m202 -75 l-78 -4 -20 -44 c-26 -58 -29
-215 -4 -236 9 -7 50 -16 93 -20 69 -5 64 -6 -53 -7 l-129 -2 6 58 c4 31 10
103 13 160 l7 102 121 -2 c92 -2 102 -3 44 -5z"/>
<path d="M1670 1427 c0 -57 3 -152 7 -210 l6 -107 74 0 75 0 -7 66 c-7 61 -6
66 11 62 14 -2 20 -13 22 -43 5 -86 4 -85 83 -85 l71 0 -6 58 c-18 164 -14
152 -52 152 -26 0 -34 4 -34 18 0 13 8 17 33 17 26 0 32 4 30 20 -1 11 -5 50
-8 88 l-7 67 -65 0 -65 0 4 -50 c2 -42 0 -50 -14 -50 -15 0 -18 9 -18 50 l0
50 -70 0 -70 0 0 -103z m100 -2 c0 -63 44 -98 87 -69 18 11 23 24 23 55 0 38
2 40 27 37 23 -3 29 -9 34 -40 5 -31 3 -38 -11 -38 -9 0 -24 -16 -33 -35 -15
-31 -15 -40 -3 -69 9 -21 23 -36 39 -40 21 -5 26 -13 29 -51 3 -45 3 -45 -29
-45 -29 0 -33 3 -33 28 0 36 -35 92 -58 92 -31 0 -57 -37 -57 -81 0 -37 -1
-39 -31 -39 l-31 0 -6 107 c-4 58 -7 130 -7 160 0 52 0 53 30 53 25 0 30 -4
30 -25z"/>
<path d="M2077 1493 c3 -21 15 -114 27 -208 l22 -170 168 -3 c141 -2 167 0
163 11 -3 8 -9 35 -12 61 l-7 46 -73 0 c-64 0 -73 2 -78 20 -5 19 0 20 65 20
l70 0 -7 46 c-11 75 -10 74 -86 74 -63 0 -69 2 -69 21 0 19 5 20 66 17 l66 -3
-7 45 c-4 25 -9 48 -12 53 -2 4 -71 7 -153 7 l-148 0 5 -37z m226 -50 c-61 -5
-87 -32 -77 -82 9 -42 26 -53 97 -61 l62 -7 -53 -2 c-45 -1 -55 -4 -59 -21 -3
-11 -9 -20 -14 -20 -16 0 -9 -57 9 -80 14 -17 34 -24 83 -30 55 -6 47 -7 -63
-9 l-126 -1 -6 28 c-8 42 -36 250 -36 272 0 19 7 20 118 18 64 -1 94 -3 65 -5z"/>
<path d="M2480 1518 c0 -7 5 -30 11 -50 9 -34 13 -38 42 -38 l33 0 38 -152
c22 -84 42 -157 46 -161 4 -4 38 -7 77 -5 l70 3 -38 130 c-58 196 -57 187 -19
183 18 -1 32 -1 33 2 1 3 -5 26 -12 53 l-14 47 -133 0 c-101 0 -134 -3 -134
-12z m237 -75 c-9 -2 -24 -17 -32 -32 -13 -26 -11 -39 20 -152 19 -68 35 -125
35 -126 0 -2 -15 -3 -33 -3 l-33 0 -24 97 c-13 53 -37 123 -51 154 -22 47 -33
58 -56 62 -15 2 22 4 82 4 61 1 102 -1 92 -4z"/>
<path d="M298 886 c-10 -7 -18 -18 -18 -24 0 -5 -11 -32 -25 -59 -34 -67 -202
-618 -211 -692 -11 -96 -21 -93 288 -88 314 6 212 5 659 1 l376 -4 24 24 c13
13 33 36 43 52 l20 28 17 -41 c10 -23 27 -47 38 -53 14 -7 100 -9 273 -6 139
2 261 4 271 4 33 -1 537 -1 550 -1 6 1 134 -1 284 -4 l272 -4 12 39 c11 36 5
59 -96 388 -104 337 -133 414 -165 441 -11 9 -73 12 -227 13 -206 0 -212 -1
-218 -21 l-7 -21 -15 21 c-14 20 -23 21 -225 21 -182 0 -214 -2 -230 -16 -16
-16 -18 -16 -24 0 -5 14 -32 16 -224 16 -217 0 -219 0 -226 -22 -3 -12 -13
-28 -20 -36 -8 -7 -14 -21 -14 -30 0 -12 -5 -10 -17 8 -9 14 -19 27 -22 30 -3
3 -11 14 -17 25 -10 19 -23 20 -193 23 -118 2 -181 -1 -181 -8 0 -5 -7 -10
-15 -10 -8 0 -15 5 -15 10 0 6 -46 10 -119 10 -110 0 -121 -2 -134 -21 l-15
-21 -7 21 c-6 20 -12 21 -218 21 -160 -1 -216 -4 -229 -14z m432 -19 c0 -7
-31 -170 -70 -362 -38 -192 -70 -350 -70 -352 0 -2 -112 -3 -250 -3 -137 0
-250 3 -250 8 0 4 48 168 106 365 l107 357 213 0 c168 0 214 -3 214 -13z m285
-9 c-3 -13 -23 -160 -45 -328 -22 -168 -43 -322 -46 -342 l-6 -38 -140 0 -140
0 6 28 c3 15 33 173 66 352 34 179 63 331 65 338 3 9 37 12 125 12 120 0 120
0 115 -22z m395 -3 c0 -18 5 -25 20 -25 25 0 28 -45 4 -54 -23 -9 -32 0 -26
29 l4 26 -163 -3 -164 -3 -35 -302 -35 -303 182 0 183 0 0 -35 0 -35 -210 0
c-115 0 -210 3 -210 8 0 4 20 164 45 357 25 192 45 353 45 357 0 5 81 8 180 8
l180 0 0 -25z m550 9 c0 -23 49 -621 55 -671 l5 -43 -254 0 -253 0 4 353 c3
193 6 358 8 365 3 9 56 12 220 12 191 0 215 -2 215 -16z m475 -6 c5 -23 135
-699 135 -705 0 -2 -114 -2 -252 -1 l-253 3 -26 295 c-15 162 -30 325 -34 363
l-6 67 215 0 c215 0 216 0 221 -22z m578 -333 c59 -195 107 -359 107 -365 0
-6 -85 -10 -250 -10 l-250 0 -5 23 c-3 12 -36 176 -74 365 l-68 342 217 0 217
0 106 -355z m-1536 88 c-4 -87 -7 -197 -7 -245 0 -83 -1 -88 -22 -88 -21 0
-21 1 -15 143 4 78 7 188 7 245 0 98 1 102 22 102 21 0 21 -1 15 -157z m-107
92 c0 -7 7 -18 15 -22 12 -7 13 -35 4 -198 -5 -105 -14 -191 -19 -193 -6 -2
-10 -12 -10 -21 0 -16 -13 -19 -95 -25 -92 -7 -185 -1 -185 13 -1 16 42 437
46 449 2 9 36 12 124 12 98 0 120 -3 120 -15z"/>
<path d="M325 818 c-2 -7 -42 -145 -88 -305 l-85 -293 93 0 92 0 12 53 c26
116 30 127 55 127 l24 0 -23 -90 -23 -90 88 0 87 0 25 117 24 118 -42 3 c-40
3 -42 4 -35 30 6 23 13 27 49 30 23 2 42 4 42 5 0 1 14 65 30 142 16 77 30
145 30 152 0 19 -349 19 -355 1z m115 -103 c0 -3 -9 -23 -20 -44 -21 -42 -42
-153 -33 -177 16 -43 76 -36 111 13 22 32 54 158 47 191 -3 20 1 22 36 22 21
0 39 -3 39 -7 0 -5 -7 -45 -16 -90 -15 -76 -18 -82 -43 -85 -32 -4 -68 -65
-77 -130 -6 -43 -5 -45 25 -58 29 -11 31 -16 26 -44 -13 -62 -13 -62 -51 -58
-27 3 -34 8 -29 20 3 9 9 35 12 58 4 33 1 48 -18 73 -39 53 -66 39 -109 -54
-12 -27 -26 -61 -29 -74 -6 -19 -14 -24 -44 -25 -20 -1 -37 0 -37 1 0 5 111
410 121 441 10 29 14 32 50 32 21 0 39 -2 39 -5z"/>
<path d="M806 818 c-2 -7 -25 -132 -51 -277 -25 -145 -49 -277 -52 -293 l-5
-28 91 0 c86 0 91 1 96 23 2 12 21 137 40 277 20 140 38 267 41 283 l6 27 -82
0 c-56 0 -82 -4 -84 -12z m104 -120 c0 -52 -65 -444 -74 -450 -12 -9 -60 -11
-68 -3 -2 3 12 105 33 228 21 122 39 228 39 235 0 7 14 12 35 12 30 0 35 -3
35 -22z"/>
<path d="M1567 823 c-4 -3 -7 -141 -7 -305 l0 -298 200 0 200 0 0 59 c0 32 -3
73 -6 90 l-6 31 -84 0 -84 0 0 30 0 30 86 0 87 0 -7 31 c-3 17 -6 53 -6 80 l0
49 -85 0 -85 0 0 30 0 30 80 0 80 0 0 29 c0 15 -3 49 -6 75 l-7 46 -172 0
c-94 0 -175 -3 -178 -7z m313 -113 c0 -5 -24 -10 -54 -10 -49 0 -57 -3 -75
-29 -26 -36 -29 -122 -6 -141 8 -7 36 -14 63 -17 71 -6 93 -13 86 -24 -3 -6
-31 -9 -60 -8 -52 3 -56 1 -74 -29 -13 -22 -20 -51 -20 -86 0 -70 20 -88 101
-94 32 -2 62 -8 64 -13 8 -12 -68 -19 -187 -16 l-108 2 0 238 0 237 135 0 c83
0 135 -4 135 -10z"/>
<path d="M2051 793 c0 -21 12 -157 27 -303 l27 -265 92 -3 93 -3 -6 48 c-4 26
-10 67 -14 91 -7 39 -6 42 16 42 25 0 26 -4 42 -120 l7 -55 89 -3 c88 -3 88
-3 83 20 -3 13 -13 67 -22 121 l-17 97 -43 0 c-40 0 -43 2 -47 30 -4 29 -3 30
37 30 l42 0 -29 153 c-15 83 -28 153 -28 155 0 1 -79 2 -175 2 l-175 0 1 -37z
m135 -151 c1 -95 20 -152 56 -169 37 -19 74 -3 81 35 8 38 -9 146 -29 183
l-15 29 45 0 44 0 11 -75 c13 -87 14 -111 4 -102 -3 4 -15 -8 -26 -26 -38 -61
-14 -159 42 -170 25 -5 31 -12 39 -49 10 -51 4 -61 -34 -56 -26 3 -30 8 -39
54 -5 28 -15 58 -20 65 -6 8 -17 26 -25 42 -17 35 -49 35 -75 -1 -15 -21 -20
-43 -20 -94 l0 -68 -33 0 c-18 0 -35 6 -37 13 -2 6 -14 98 -25 202 -11 105
-23 207 -26 228 l-6 37 44 0 43 0 1 -78z"/>
<path d="M2530 816 c0 -8 16 -89 35 -180 19 -92 35 -169 35 -171 0 -3 41 -5
90 -5 71 0 90 -3 90 -14 0 -8 3 -21 6 -30 5 -14 -6 -16 -81 -16 l-88 0 7 -40
c3 -22 11 -63 17 -90 l11 -50 205 0 c160 0 204 3 200 13 -2 6 -28 96 -58 199
l-54 188 -83 0 c-79 0 -83 1 -92 26 -6 14 -10 27 -10 30 0 2 38 4 84 4 l84 0
-22 73 -23 72 -176 3 c-148 2 -177 0 -177 -12z m325 -105 c3 -6 -17 -11 -46
-13 -42 -2 -56 -8 -71 -29 -17 -23 -18 -30 -7 -73 15 -60 43 -79 124 -86 l60
-5 36 -125 c20 -69 35 -127 33 -130 -6 -12 -284 -4 -296 8 -9 9 -1 12 37 12
68 0 91 8 103 34 10 24 -3 116 -16 116 -4 0 -13 13 -20 30 -13 28 -16 29 -84
32 l-72 3 -22 100 c-34 149 -45 135 105 135 72 0 132 -4 136 -9z"/>
<path d="M1222 685 c-7 -8 -10 -15 -6 -15 4 0 0 -8 -8 -17 -35 -40 -52 -309
-22 -351 24 -34 75 -30 98 8 19 33 44 278 32 323 -13 55 -66 84 -94 52z"/>
</g>
</svg>
