<?xml version="1.0" standalone="no"?>
<!DOCTYPE svg PUBLIC "-//W3C//DTD SVG 20010904//EN"
 "http://www.w3.org/TR/2001/REC-SVG-20010904/DTD/svg10.dtd">
<svg version="1.0" xmlns="http://www.w3.org/2000/svg"
 width="322.000000pt" height="160.000000pt" viewBox="0 0 322.000000 160.000000"
 preserveAspectRatio="xMidYMid meet">

<g transform="translate(0.000000,160.000000) scale(0.100000,-0.100000)"
fill="#000000" stroke="none">
<path d="M532 1563 c49 -2 127 -2 176 0 48 1 8 3 -88 3 -96 0 -136 -2 -88 -3z"/>
<path d="M933 1563 c48 -2 126 -2 175 0 48 1 8 3 -88 3 -96 0 -136 -2 -87 -3z"/>
<path d="M1333 1563 c48 -2 126 -2 175 0 48 1 8 3 -88 3 -96 0 -136 -2 -87 -3z"/>
<path d="M1733 1563 c48 -2 126 -2 175 0 48 1 8 3 -88 3 -96 0 -136 -2 -87 -3z"/>
<path d="M2133 1563 c48 -2 126 -2 175 0 48 1 8 3 -88 3 -96 0 -136 -2 -87 -3z"/>
<path d="M2523 1563 c42 -2 112 -2 155 0 42 1 7 3 -78 3 -85 0 -120 -2 -77 -3z"/>
<path d="M2001 1555 c0 -5 10 -107 24 -225 14 -118 25 -225 25 -237 l0 -23
-205 0 -205 0 0 241 c0 214 -2 239 -15 225 -10 -10 -15 -35 -15 -80 l0 -66
-89 0 -89 0 -4 -56 c-1 -31 -1 -58 1 -60 2 -2 43 -3 90 -2 l86 2 -79 5 c-44 3
-81 11 -83 17 -7 21 23 32 101 36 l78 4 -6 -51 c-3 -27 -6 -87 -6 -132 l0 -83
-210 0 c-193 0 -210 1 -210 18 0 9 9 107 20 217 23 229 23 238 11 231 -5 -4
-11 -1 -13 5 -2 6 -14 -94 -27 -222 -13 -129 -27 -237 -31 -242 -3 -4 -99 -6
-211 -5 l-205 3 48 225 c26 124 46 232 44 240 -3 11 -4 11 -5 -2 -1 -10 -7
-15 -14 -12 -10 4 -26 -52 -63 -226 l-49 -230 -207 0 -207 0 14 48 c8 26 23
74 35 106 11 33 20 64 19 70 -1 21 -79 -219 -79 -244 0 -47 11 -50 210 -50
151 0 190 3 208 15 19 14 24 14 46 0 20 -14 52 -15 217 -11 107 3 206 5 222 4
37 0 422 0 450 0 12 0 110 -2 218 -4 186 -5 196 -4 213 15 19 20 19 20 44 1
23 -18 41 -20 208 -20 153 0 185 3 198 16 21 21 21 31 -14 185 -17 73 -29 136
-28 140 2 4 18 0 37 -9 34 -17 35 -20 71 -161 25 -98 43 -148 55 -157 21 -16
191 -19 214 -5 24 15 20 61 -15 175 -40 129 -41 142 -14 149 15 4 20 14 20 39
0 33 -48 193 -56 185 -2 -2 7 -37 21 -77 14 -40 25 -77 25 -81 0 -4 -15 -9
-33 -11 l-33 -3 46 -155 46 -155 -109 -3 c-60 -1 -112 -1 -114 2 -3 2 -18 58
-34 123 -54 212 -46 193 -83 193 l-33 0 -18 82 c-15 64 -21 77 -26 58 l-6 -25
-8 28 c-4 15 -9 26 -11 24 -2 -2 20 -112 50 -245 l53 -242 -207 0 -207 0 -29
242 c-17 144 -31 232 -35 218 -6 -25 -8 -23 -22 20 -3 8 -6 11 -6 5z m-1494
-511 c-3 -3 -12 -4 -19 -1 -8 3 -5 6 6 6 11 1 17 -2 13 -5z"/>
<path d="M420 1398 c-23 -73 -52 -167 -65 -208 l-23 -75 70 -3 c39 -2 74 1 78
5 5 4 11 24 14 43 l6 35 -13 -35 c-13 -33 -17 -35 -65 -38 -45 -3 -52 -1 -51
15 0 10 21 88 47 173 l47 155 50 5 c48 5 82 -4 97 -25 4 -5 8 -1 8 10 0 18 6
20 56 17 l56 -4 -6 -36 c-14 -86 -25 -111 -54 -115 -25 -4 -25 -4 5 -6 26 -1
34 3 38 22 3 12 12 54 20 92 9 39 18 78 21 88 5 16 -6 17 -145 17 l-150 0 -41
-132z"/>
<path d="M826 1343 c-20 -104 -39 -198 -41 -210 l-5 -23 170 0 c93 0 170 3
170 6 0 8 39 333 45 377 l5 37 -153 0 -154 0 -37 -187z m324 125 c0 -2 -9 -75
-20 -163 -11 -88 -20 -166 -20 -172 0 -10 -37 -13 -150 -13 -113 0 -150 3
-150 13 0 19 60 319 66 329 4 7 274 13 274 6z"/>
<path d="M955 1326 c-18 -100 -15 -146 10 -146 29 0 45 44 50 141 l4 94 -16
-92 c-13 -80 -18 -93 -35 -93 -16 0 -19 5 -14 28 16 82 27 155 23 159 -3 2
-13 -39 -22 -91z"/>
<path d="M1266 1518 c-2 -7 -9 -78 -16 -158 -6 -80 -14 -169 -17 -197 l-6 -53
172 0 171 0 0 60 0 60 -90 0 -90 0 -1 83 -2 82 -8 -70 c-8 -77 -3 -131 15
-143 6 -4 43 -9 81 -12 63 -5 70 -7 73 -27 3 -23 3 -23 -147 -23 -137 0 -151
2 -151 18 0 25 19 239 26 290 l5 43 137 -3 c120 -3 137 -5 137 -20 0 -9 4 -20
8 -24 4 -4 7 18 7 49 l0 57 -150 0 c-112 0 -152 -3 -154 -12z"/>
<path d="M1670 1427 c0 -57 3 -152 7 -210 l6 -107 74 0 c82 0 81 -1 64 85 -9
39 -9 39 -10 -18 l-1 -58 -57 3 -58 3 -3 173 -2 172 48 0 49 0 9 -42 c15 -71
64 -63 64 10 0 31 1 32 45 32 48 0 49 -1 60 -63 5 -32 3 -39 -17 -47 -21 -9
-21 -10 7 -7 23 1 30 6 28 22 -1 11 -5 50 -8 88 l-7 67 -65 0 -65 0 4 -50 c2
-42 0 -50 -14 -50 -15 0 -18 9 -18 50 l0 50 -70 0 -70 0 0 -103z"/>
<path d="M2077 1493 c3 -21 15 -114 27 -208 l22 -170 168 -3 c141 -2 167 0
163 11 -3 8 -9 35 -12 61 l-7 46 -73 0 c-62 0 -74 3 -78 18 -3 9 -5 3 -6 -14
-1 -43 25 -64 80 -64 45 0 69 -13 69 -37 0 -10 -33 -13 -145 -13 -142 0 -145
0 -149 23 -9 43 -36 263 -36 295 l0 32 130 0 c127 0 135 -2 132 -32 -1 -3 6
-9 14 -12 14 -5 15 0 9 41 -4 27 -9 51 -12 56 -2 4 -71 7 -153 7 l-148 0 5
-37z"/>
<path d="M2485 1493 c4 -21 11 -45 16 -53 7 -11 8 -9 4 8 -6 22 -6 22 108 22
90 0 117 -3 127 -15 7 -8 9 -15 4 -15 -5 0 -2 -4 6 -9 25 -17 29 -2 12 49
l-16 50 -134 0 -134 0 7 -37z"/>
<path d="M381 1419 c-18 -55 -31 -102 -29 -104 2 -3 19 41 37 96 18 55 31 102
29 104 -2 3 -19 -41 -37 -96z"/>
<path d="M594 1395 c-4 -25 -11 -35 -25 -35 -16 0 -18 5 -14 28 5 27 5 27 -5
2 -17 -38 -9 -74 17 -78 25 -4 38 15 48 70 4 21 3 38 -4 42 -6 4 -13 -8 -17
-29z"/>
<path d="M2257 1385 c7 -49 15 -55 75 -55 37 0 50 -4 58 -20 13 -24 6 -28 -60
-33 -33 -3 -27 -4 24 -5 l68 -2 -7 46 c-11 75 -10 74 -85 74 -57 0 -69 3 -74
18 -2 9 -2 -1 1 -23z"/>
<path d="M2571 1415 c0 -5 17 -75 38 -155 l38 -145 76 -3 c59 -2 76 0 72 10
-2 7 -23 76 -45 152 -22 77 -42 142 -45 144 -13 13 7 -104 33 -191 33 -110 33
-110 -39 -105 l-44 3 -35 135 c-36 135 -48 174 -49 155z"/>
<path d="M1914 1319 c4 -43 12 -59 30 -59 23 0 35 -24 42 -83 l7 -57 -55 0
-56 0 -10 58 -9 57 -2 -47 c-2 -75 2 -78 81 -78 l70 0 -6 58 c-18 164 -14 152
-51 152 -23 0 -35 5 -39 18 -3 9 -3 1 -2 -19z"/>
<path d="M643 1273 c-20 -8 -15 -39 9 -55 20 -13 21 -19 13 -54 -10 -38 -11
-39 -61 -42 l-51 -3 1 58 c1 48 -2 58 -17 59 -12 1 -13 1 -2 -3 8 -2 15 -5 15
-6 0 -1 -7 -27 -15 -57 -8 -30 -15 -56 -15 -57 0 -2 33 -3 73 -3 l73 0 13 63
c7 34 15 72 18 85 4 18 1 22 -18 21 -13 0 -30 -3 -36 -6z"/>
<path d="M413 883 c59 -2 155 -2 215 0 59 1 10 3 -108 3 -118 0 -167 -2 -107
-3z"/>
<path d="M838 883 c34 -2 88 -2 120 0 31 2 3 3 -63 3 -66 0 -92 -1 -57 -3z"/>
<path d="M1143 883 c48 -2 126 -2 175 0 48 1 8 3 -88 3 -96 0 -136 -2 -87 -3z"/>
<path d="M1633 883 c59 -2 155 -2 215 0 59 1 10 3 -108 3 -118 0 -167 -2 -107
-3z"/>
<path d="M2102 883 c59 -2 158 -2 220 0 62 1 14 3 -107 3 -121 0 -172 -2 -113
-3z"/>
<path d="M2583 883 c59 -2 155 -2 215 0 59 1 10 3 -108 3 -118 0 -167 -2 -107
-3z"/>
<path d="M256 759 c-167 -542 -193 -648 -164 -677 9 -9 76 -12 239 -12 226 0
228 0 256 24 l28 24 22 -24 c21 -23 29 -24 135 -24 89 0 119 4 137 16 22 16
25 16 51 0 23 -13 59 -16 203 -16 97 0 183 3 192 6 8 4 36 35 60 69 67 94 71
95 78 29 3 -30 13 -66 22 -80 l15 -24 235 0 234 0 20 26 21 27 26 -27 27 -26
229 0 c229 0 229 0 251 24 l22 24 28 -24 c28 -24 30 -24 256 -24 171 0 231 3
238 13 30 37 22 75 -77 401 -55 179 -106 340 -115 358 -20 43 -24 58 94 -334
55 -186 101 -342 101 -348 0 -6 -86 -10 -250 -10 -137 0 -250 1 -250 3 -53
272 -148 713 -149 689 -1 -34 -21 -36 -21 -2 0 10 -4 22 -10 25 -5 3 -8 0 -5
-7 2 -7 31 -157 65 -333 33 -176 63 -332 66 -348 l6 -27 -254 2 -253 3 -31
346 c-30 325 -41 419 -43 341 -1 -39 -21 -34 -21 5 0 15 -3 24 -6 21 -4 -5 37
-559 51 -676 l5 -42 -254 0 -253 0 3 347 c1 192 -1 322 -4 291 -7 -57 -22 -90
-22 -49 0 13 -9 34 -20 48 -14 17 -20 21 -20 10 0 -16 -26 -31 -40 -22 -14 8
2 55 19 55 10 0 12 3 5 8 -6 4 -14 14 -17 22 -4 10 -6 8 -6 -7 -1 -22 -3 -23
-163 -25 l-163 -3 -35 -302 -35 -303 182 0 183 0 0 -35 0 -35 -210 0 c-115 0
-210 3 -210 8 0 4 20 164 45 356 25 192 43 351 41 353 -2 2 -7 -9 -11 -24 l-8
-28 -6 24 c-4 15 -24 -110 -49 -300 -24 -178 -46 -339 -49 -356 l-5 -33 -140
0 -140 0 6 28 c37 179 126 675 123 678 -3 3 -8 -8 -13 -23 l-8 -28 -5 35 c-5
27 -21 -40 -70 -280 -34 -173 -67 -336 -73 -362 l-10 -48 -249 0 c-137 0 -249
4 -249 8 0 5 47 166 104 358 57 192 103 351 101 353 -2 1 -19 -48 -39 -110z
m1221 -146 c-4 -87 -7 -197 -7 -245 0 -83 -1 -88 -22 -88 -21 0 -21 1 -15 143
4 78 7 188 7 245 0 98 1 102 22 102 21 0 21 -1 15 -157z m-81 120 l26 -28 -6
-199 c-4 -146 -9 -202 -18 -208 -10 -6 -7 -10 10 -14 16 -5 22 -14 22 -35 0
-24 -4 -29 -25 -29 -21 0 -25 5 -26 33 -1 29 -2 30 -8 7 l-7 -25 -154 -3 c-84
-1 -157 1 -162 6 -7 7 34 421 48 482 3 14 11 28 17 32 7 4 67 8 134 8 120 0
123 0 149 -27z"/>
<path d="M1248 683 c7 -3 16 -2 19 1 4 3 -2 6 -13 5 -11 0 -14 -3 -6 -6z"/>
<path d="M1217 618 c-4 -29 -10 -98 -13 -153 -6 -87 -4 -103 10 -117 22 -23
43 -13 55 25 16 51 25 242 12 263 -9 16 -10 11 -11 -26 0 -25 -3 -82 -7 -127
-6 -79 -7 -83 -30 -83 -21 0 -24 4 -19 28 8 40 19 242 14 242 -3 0 -8 -24 -11
-52z"/>
<path d="M325 818 c-2 -7 -42 -145 -88 -305 l-85 -293 93 0 92 0 12 53 c26
116 30 125 59 130 l27 4 -28 2 c-31 1 -32 -1 -62 -104 l-20 -70 -59 -3 c-32
-2 -62 1 -67 5 -12 12 128 496 148 511 26 19 292 17 299 -2 5 -12 -17 -144
-32 -198 -3 -11 -18 -18 -42 -21 l-37 -4 43 -1 c23 -1 42 -1 42 1 0 1 14 65
30 142 16 77 30 145 30 152 0 19 -349 19 -355 1z"/>
<path d="M806 818 c-2 -7 -25 -132 -51 -277 -25 -145 -49 -277 -52 -293 l-5
-28 91 0 c86 0 91 1 96 23 2 12 21 137 40 277 20 140 38 267 41 283 l6 27 -82
0 c-56 0 -82 -4 -84 -12z m130 -72 c6 -15 -60 -488 -71 -505 -7 -13 -121 -15
-129 -3 -8 14 79 489 93 506 17 21 99 22 107 2z"/>
<path d="M1567 823 c-4 -3 -7 -141 -7 -305 l0 -298 200 0 200 0 0 59 c0 32 -3
73 -6 90 l-6 31 -84 0 c-83 0 -83 0 -87 28 -2 15 -5 5 -6 -24 -1 -67 15 -82
94 -86 54 -3 60 -5 69 -29 20 -58 13 -60 -176 -57 l-173 3 -3 243 c-1 156 1
250 8 262 10 18 22 20 153 20 151 0 167 -4 167 -47 0 -21 -5 -22 -72 -26 l-73
-3 83 -2 82 -2 0 29 c0 15 -3 49 -6 75 l-7 46 -172 0 c-94 0 -175 -3 -178 -7z"/>
<path d="M2051 793 c0 -21 12 -157 27 -303 l27 -265 92 -3 93 -3 -6 48 c-4 26
-10 66 -14 88 l-8 40 -2 -40 c-2 -22 -4 -58 -4 -80 l-1 -40 -59 -3 c-32 -2
-63 1 -68 6 -5 5 -21 121 -35 257 -22 208 -23 249 -12 256 8 5 75 9 150 9 110
0 139 -3 149 -15 19 -23 50 -206 36 -210 -37 -11 -37 -13 0 -14 l41 -1 -29
153 c-15 83 -28 153 -28 155 0 1 -79 2 -175 2 l-175 0 1 -37z"/>
<path d="M2530 816 c0 -8 16 -89 35 -180 19 -92 35 -169 35 -171 0 -3 39 -4
88 -3 l87 2 -78 3 c-70 4 -79 6 -86 26 -16 42 -53 238 -47 253 4 11 33 14 146
14 127 0 142 -2 160 -20 37 -37 26 -49 -47 -53 -65 -3 -65 -3 18 -5 l87 -2
-22 73 -23 72 -176 3 c-148 2 -177 0 -177 -12z"/>
<path d="M478 733 c6 -2 18 -2 25 0 6 3 1 5 -13 5 -14 0 -19 -2 -12 -5z"/>
<path d="M2217 734 c-11 -11 -8 -124 3 -166 12 -41 38 -62 59 -48 18 10 17 97
-1 165 -10 37 -18 51 -33 53 -12 2 -24 0 -28 -4z m46 -26 c3 -13 9 -47 13 -75
6 -49 5 -53 -14 -53 -20 0 -21 2 -37 108 -6 37 -5 42 13 42 12 0 22 -9 25 -22z"/>
<path d="M435 658 c-22 -83 -18 -132 12 -136 32 -5 55 47 59 133 4 74 1 70
-27 -37 -7 -28 -15 -38 -29 -38 -24 0 -24 -3 -4 72 8 33 13 62 11 65 -3 2 -12
-24 -22 -59z"/>
<path d="M1761 629 c-1 -61 18 -79 86 -79 54 0 71 -11 75 -51 3 -23 0 -24 -72
-30 l-75 -5 89 -2 89 -2 -7 31 c-3 17 -6 53 -6 80 l0 49 -84 0 c-85 0 -85 0
-89 28 -3 17 -5 11 -6 -19z"/>
<path d="M2761 628 c-1 -57 25 -78 98 -78 38 0 63 -5 70 -14 16 -18 92 -286
85 -297 -3 -5 -82 -9 -175 -9 l-169 0 -11 27 c-18 48 -9 58 53 61 31 2 61 8
66 15 14 18 21 79 11 102 -8 16 -8 14 -4 -7 l5 -28 -86 0 -87 0 7 -40 c3 -22
11 -63 17 -90 l11 -50 205 0 c160 0 204 3 200 13 -2 6 -28 96 -58 199 l-54
188 -83 0 c-76 0 -83 2 -92 23 -8 19 -9 17 -9 -15z"/>
<path d="M2371 477 c-1 -49 10 -70 52 -95 29 -17 35 -28 45 -78 7 -32 8 -62 3
-67 -4 -4 -32 -7 -62 -5 -60 3 -57 -1 -81 113 -12 55 -15 60 -41 61 -24 1 -25
1 -2 -3 26 -5 27 -9 43 -123 l7 -55 89 -3 c88 -3 88 -3 83 20 -3 13 -13 67
-22 121 l-17 97 -44 0 c-39 0 -43 2 -47 28 -3 21 -4 19 -6 -11z"/>
<path d="M521 484 c0 -11 3 -14 6 -6 3 7 2 16 -1 19 -3 4 -6 -2 -5 -13z"/>
<path d="M520 430 c0 -23 6 -33 26 -42 24 -11 26 -15 20 -60 -4 -27 -11 -60
-16 -74 -9 -23 -14 -25 -67 -22 l-58 3 2 80 2 80 -22 -85 -23 -85 84 -3 c47
-2 86 -2 87 0 2 2 14 56 28 121 l25 117 -44 0 c-42 0 -44 -1 -44 -30z"/>
</g>
</svg>
